<?xml version="1.0" standalone="no"?>
<!DOCTYPE svg PUBLIC "-//W3C//DTD SVG 1.1//EN" "http://www.w3.org/Graphics/SVG/1.1/DTD/svg11.dtd" >
<svg xmlns="http://www.w3.org/2000/svg">
<metadata>Generated by IcoMoon</metadata>
<defs>
<font id="ikon" horiz-adv-x="512">
<font-face units-per-em="512" ascent="496" descent="-16" />
<missing-glyph horiz-adv-x="512" />
<glyph unicode="&#x20;" horiz-adv-x="128" d="" />
<glyph unicode="&#xe900;" glyph-name="coins" d="M414.4 349.6c0 32.8-49.6 49.6-97.6 49.6s-97.6-16.8-97.6-50.4l1.6-65.6c-8.8 0.8-17.6 1.6-26.4 1.6-48.8 0-97.6-16.8-97.6-49.6 0 0 0 0 0 0l1.6-105.6c0-32.8 49.6-49.6 97.6-49.6s97.6 16.8 97.6 50.4v12c8-0.8 16.8-1.6 24.8-1.6 48.8 0 97.6 16.8 97.6 49.6l-1.6 159.2zM128 205.6c17.6-8 41.6-12.8 65.6-12.8s48.8 4.8 66.4 12.8l0.8-36.8c-11.2-8-35.2-16-66.4-16-30.4 0-53.6 7.2-64.8 14.4l-1.6 38.4zM383.2 284c-11.2-8-35.2-15.2-65.6-15.2s-53.6 7.2-65.6 15.2l-0.8 37.6c17.6-8.8 42.4-12.8 66.4-12.8s48 4 65.6 12.8v-37.6zM292 236c0 7.2-2.4 14.4-7.2 20 10.4-1.6 22.4-3.2 33.6-3.2 24 0 48.8 4.8 66.4 12.8l0.8-36.8c-11.2-8-35.2-15.2-66.4-15.2-8.8 0-17.6 0.8-25.6 1.6l-1.6 20.8zM316.8 368c41.6 0 64-12.8 65.6-17.6v-10.4c-12-8-34.4-14.4-65.6-14.4-32 0-55.2 7.2-66.4 16v8.8c1.6 4 24.8 17.6 66.4 17.6zM193.6 253.6c41.6 0 64-12.8 65.6-18.4v-11.2c-11.2-8-35.2-15.2-65.6-15.2-31.2 0-54.4 7.2-66.4 15.2v11.2c2.4 5.6 25.6 18.4 66.4 18.4zM195.2 112c-41.6 0-64 12.8-65.6 18.4v19.2c17.6-8 41.6-12 64.8-12 24 0 49.6 4.8 67.2 13.6v-20c-1.6-5.6-24.8-19.2-66.4-19.2zM318.4 172.8c-8.8 0-17.6 0.8-25.6 1.6l-0.8 24.8c8-0.8 16.8-1.6 25.6-1.6 24 0 48.8 4.8 66.4 12.8v-20c-1.6-4.8-24-17.6-65.6-17.6z" />
<glyph unicode="&#xe901;" glyph-name="distribution" d="M161.6 176c-37.6 0-68 30.4-68 68s30.4 68 68 68 68-30.4 68-68c0-37.6-30.4-68-68-68zM161.6 280c-20 0-36-16-36-36s16-36 36-36 36 16 36 36-16 36-36 36zM357.6 80c-32.8 0-60 27.2-60 60s27.2 60 60 60 60-27.2 60-60-26.4-60-60-60zM357.6 168c-15.2 0-28-12.8-28-28s12.8-28 28-28 28 12.8 28 28-12 28-28 28zM357.6 296c-28.8 0-52 23.2-52 52s23.2 52 52 52 52-23.2 52-52-23.2-52-52-52zM357.6 368c-11.2 0-20-8.8-20-20s8.8-20 20-20 20 8.8 20 20-8.8 20-20 20zM357.6 220c-4.8 0-8 3.2-8 8v32c0 4.8 3.2 8 8 8s8-3.2 8-8v-32c0-4-3.2-8-8-8zM280.8 169.6c-1.6 0-2.4 0-4 0.8l-37.6 21.6c-4 2.4-4.8 7.2-3.2 11.2 2.4 4 7.2 4.8 11.2 3.2l36.8-21.6c4-2.4 4.8-7.2 3.2-11.2-1.6-2.4-4-4-6.4-4zM249.6 276c-2.4 0-5.6 1.6-7.2 4-2.4 4-0.8 8.8 3.2 11.2l41.6 24c4 2.4 8.8 0.8 11.2-3.2s0.8-8.8-3.2-11.2l-41.6-24c-1.6-0.8-3.2-0.8-4-0.8z" />
<glyph unicode="&#xe902;" glyph-name="transactions" d="M368 299.2h-216c-8.8 0-16 7.2-16 16s7.2 16 16 16h216c8.8 0 16-7.2 16-16s-7.2-16-16-16zM216 232.8c-4 0-8 1.6-11.2 4l-72 66.4c-3.2 3.2-4.8 7.2-4.8 11.2s1.6 8.8 4.8 12l68.8 67.2c6.4 6.4 16.8 6.4 22.4 0 6.4-6.4 6.4-16.8 0-22.4l-56.8-55.2 60-55.2c6.4-6.4 7.2-16 0.8-22.4-3.2-4-8-5.6-12-5.6zM356 148.8h-216c-8.8 0-16 7.2-16 16s7.2 16 16 16h216c8.8 0 16-7.2 16-16s-7.2-16-16-16zM303.2 80.8c-4 0-8 1.6-11.2 4.8-6.4 6.4-6.4 16.8 0 22.4l56.8 55.2-60 55.2c-6.4 6.4-7.2 16-0.8 22.4s16 7.2 22.4 0.8l72-66.4c3.2-3.2 4.8-7.2 4.8-11.2s-1.6-8.8-4.8-12l-68.8-67.2c-2.4-2.4-6.4-4-10.4-4z" />
<glyph unicode="&#xe903;" glyph-name="lte, sign-ltc" d="M228.8 140l17.6 85.6 91.2 62.4 10.4 51.2-91.2-62.4 26.4 123.2h-69.6l-37.6-179.2-38.4-26.4-8.8-48.8 36.8 24.8-19.2-90.4h224l12.8 60h-154.4z" />
<glyph unicode="&#xe904;" glyph-name="user" d="M376 80h-240c-22.4 0-40 17.6-40 40v240c0 22.4 17.6 40 40 40h240c22.4 0 40-17.6 40-40v-240c0-22.4-17.6-40-40-40zM136 368c-4.8 0-8-3.2-8-8v-240c0-4.8 3.2-8 8-8h240c4.8 0 8 3.2 8 8v240c0 4.8-3.2 8-8 8h-240zM256 184c-40 0-72 32-72 72s32 72 72 72c40 0 72-32 72-72s-32-72-72-72zM256 296c-22.4 0-40-17.6-40-40s17.6-40 40-40 40 17.6 40 40-17.6 40-40 40zM352 133.6c-1.6 0-4 0-5.6 0.8-31.2 12.8-69.6 32.8-77.6 58.4-2.4 8.8 2.4 17.6 10.4 20 8.8 2.4 17.6-2.4 20-10.4 1.6-5.6 16.8-21.6 59.2-38.4 8-3.2 12-12.8 8.8-20.8-3.2-5.6-8.8-9.6-15.2-9.6zM160 133.6c-7.2 0-13.6 4.8-15.2 12-2.4 8.8 3.2 17.6 11.2 19.2 48 12.8 59.2 27.2 64.8 40.8 3.2 8 12.8 12 20.8 8.8s12-12.8 8.8-20.8c-11.2-29.6-36.8-47.2-86.4-60-1.6 0-2.4 0-4 0z" />
<glyph unicode="&#xe905;" glyph-name="dashboard" d="M384 221.6h-78.4c-17.6 0-32 14.4-32 32v114.4c0 17.6 14.4 32 32 32h78.4c17.6 0 32-14.4 32-32v-114.4c0-17.6-14.4-32-32-32zM305.6 368v-114.4h78.4v114.4h-78.4zM206.4 292.8h-78.4c-17.6 0-32 14.4-32 32v43.2c0 17.6 14.4 32 32 32h78.4c17.6 0 32-14.4 32-32v-43.2c0-17.6-13.6-32-32-32zM128 368v-43.2h78.4v43.2h-78.4zM384 80.8h-78.4c-17.6 0-32 14.4-32 32v43.2c0 17.6 14.4 32 32 32h78.4c17.6 0 32-14.4 32-32v-43.2c0-17.6-14.4-32-32-32zM305.6 156v-43.2h78.4v43.2h-78.4zM206.4 80h-78.4c-17.6 0-32 14.4-32 32v114.4c0 17.6 14.4 32 32 32h78.4c17.6 0 32-14.4 32-32v-114.4c0-17.6-13.6-32-32-32zM206.4 226.4h-78.4v-114.4h78.4v114.4z" />
<glyph unicode="&#xe906;" glyph-name="exchange" d="M204 228.8h-76c-17.6 0-32 14.4-32 32v105.6c0 17.6 14.4 32 32 32h76c17.6 0 32-14.4 32-32v-105.6c0-17.6-14.4-32-32-32zM128 366.4v-105.6h76v105.6h-76zM384 84.8h-76c-17.6 0-32 14.4-32 32v105.6c0 17.6 14.4 32 32 32h76c17.6 0 32-14.4 32-32v-105.6c0-17.6-14.4-32-32-32zM308 222.4v-105.6h76v105.6h-76zM361.6 291.2c-0.8 17.6-11.2 36-28.8 49.6-18.4 14.4-40.8 20-59.2 16l-4 15.2c23.2 5.6 49.6-1.6 72-18.4 21.6-16.8 34.4-39.2 35.2-61.6l-15.2-0.8zM225.6 108c-18.4 0-39.2 7.2-56 20.8-21.6 16.8-34.4 39.2-35.2 61.6l16 0.8c0.8-17.6 11.2-36 28.8-48.8 18.4-14.4 40.8-20 59.2-16l4-15.2c-6.4-3.2-12-3.2-16.8-3.2z" />
<glyph unicode="&#xe907;" glyph-name="docs" d="M360 368v-256h-208v256h208zM360 400h-208c-17.6 0-32-14.4-32-32v-256c0-17.6 14.4-32 32-32h208c17.6 0 32 14.4 32 32v256c0 17.6-13.6 32-32 32v0zM202.4 144.8c-1.6 0-2.4 0-3.2 0.8l-16 8c-4 1.6-5.6 6.4-4 10.4s6.4 5.6 10.4 4l8.8-4.8 12 25.6c1.6 4 6.4 5.6 10.4 4s5.6-6.4 4-10.4l-15.2-32.8c-0.8-1.6-2.4-3.2-4.8-4-0.8 0-1.6-0.8-2.4-0.8zM276.8 146.4h-34.4c-4.8 0-8 3.2-8 8s3.2 8 8 8h34.4c4.8 0 8-3.2 8-8s-3.2-8-8-8zM326.4 169.6h-84c-4.8 0-8 3.2-8 8s3.2 8 8 8h84c4.8 0 8-3.2 8-8s-3.2-8-8-8zM202.4 217.6c-1.6 0-2.4 0-3.2 0.8l-16 8c-4 1.6-5.6 6.4-4 10.4s6.4 5.6 10.4 4l8.8-4.8 12 25.6c1.6 4 6.4 5.6 10.4 4s5.6-6.4 4-10.4l-15.2-32.8c-0.8-1.6-2.4-3.2-4.8-4-0.8-0.8-1.6-0.8-2.4-0.8zM276.8 218.4h-34.4c-4.8 0-8 3.2-8 8s3.2 8 8 8h34.4c4.8 0 8-3.2 8-8s-3.2-8-8-8zM326.4 242.4h-84c-4.8 0-8 3.2-8 8s3.2 8 8 8h84c4.8 0 8-3.2 8-8s-3.2-8-8-8zM202.4 289.6c-1.6 0-2.4 0-3.2 0.8l-16 8c-4 1.6-5.6 6.4-4 10.4s6.4 5.6 10.4 4l8.8-4.8 12 25.6c1.6 4 6.4 5.6 10.4 4s5.6-6.4 4-10.4l-15.2-32.8c-0.8-1.6-2.4-3.2-4.8-4-0.8-0.8-1.6-0.8-2.4-0.8zM276.8 290.4h-34.4c-4.8 0-8 3.2-8 8s3.2 8 8 8h34.4c4.8 0 8-3.2 8-8s-3.2-8-8-8zM326.4 314.4h-84c-4.8 0-8 3.2-8 8s3.2 8 8 8h84c4.8 0 8-3.2 8-8s-3.2-8-8-8z" />
<glyph unicode="&#xe908;" glyph-name="home-link" d="M362.4 81.6h-76c-8.8 0-16 7.2-16 16v59.2h-29.6v-59.2c0-8.8-7.2-16-16-16h-75.2c-8.8 0-16 7.2-16 16v117.6c0 8.8 7.2 16 16 16s16-7.2 16-16v-101.6h43.2v59.2c0 8.8 7.2 16 16 16h61.6c8.8 0 16-7.2 16-16v-59.2h44v97.6c0 8.8 7.2 16 16 16s16-7.2 16-16v-113.6c0-8.8-6.4-16-16-16zM412.8 380.8c0 8.8-7.2 16-16 16h-71.2c-8.8 0-16-7.2-16-16s7.2-16 16-16h32l-68-68c-6.4-6.4-6.4-16 0-22.4 3.2-3.2 7.2-4.8 11.2-4.8s8 1.6 11.2 4.8l68.8 68.8v-28.8c0-8.8 7.2-16 16-16 0 0 0 0 0 0 8.8 0 16 7.2 16 16v66.4zM266.4 392.8c-6.4 6.4-16 6.4-22.4 0l-142.4-141.6c-6.4-6.4-6.4-16 0-22.4s16-6.4 22.4 0l130.4 130.4 40-40 22.4 22.4-50.4 51.2zM411.2 248l-54.4 54.4-22.4-22.4 54.4-54.4c3.2-3.2 7.2-4.8 11.2-4.8s8 1.6 11.2 4.8c6.4 5.6 6.4 16 0 22.4z" />
<glyph unicode="&#xe909;" glyph-name="settings" d="M360.8 240c0 3.2 10.4 12 24 20 12.8 7.2 16.8 26.4 8 41.6l-15.2 25.6c-8.8 15.2-27.2 21.6-40 13.6-13.6-8-26.4-12.8-28.8-11.2s-4.8 15.2-4.8 30.4-14.4 28-32 28h-29.6c-17.6 0-32-12.8-32-28s-2.4-28.8-4.8-30.4c-2.4-1.6-16 3.2-28.8 11.2-13.6 8-31.2 1.6-40-13.6l-16.8-25.6c-8.8-15.2-5.6-33.6 8-41.6s24-16.8 24-20c0-3.2-10.4-12-24-20-12.8-7.2-16.8-26.4-8-41.6l15.2-25.6c8.8-15.2 27.2-21.6 40-13.6 13.6 8 26.4 12.8 28.8 11.2s4.8-15.2 4.8-30.4c0-15.2 14.4-28 32-28h29.6c17.6 0 32 12.8 32 28s2.4 28.8 4.8 30.4 16-3.2 28.8-11.2c13.6-8 31.2-1.6 40 13.6l15.2 25.6c8.8 15.2 5.6 33.6-8 41.6-12 8-22.4 16.8-22.4 20zM364.8 198.4c2.4-1.6 0-9.6-4.8-18.4s-11.2-14.4-13.6-13.6-4.8 2.4-5.6 3.2c-0.8 0-2.4 1.6-4.8 2.4-2.4 1.6-8 4.8-13.6 8s-13.6 3.2-19.2 0-9.6-5.6-9.6-5.6c0 0 0 0 0 0s-1.6-0.8-3.2-2.4-4-2.4-4.8-2.4c-0.8-0.8-3.2-2.4-6.4-3.2-2.4-1.6-4.8-12.8-4.8-24.8s-8.8-21.6-18.4-21.6c-9.6 0-18.4 9.6-18.4 21.6s-2.4 23.2-4.8 24.8c-2.4 1.6-5.6 3.2-6.4 3.2s-2.4 1.6-4.8 2.4-3.2 2.4-3.2 2.4 0 0 0 0c0 0-4.8 2.4-9.6 5.6s-13.6 3.2-19.2 0c-5.6-3.2-13.6-8-18.4-11.2s-13.6 1.6-18.4 10.4c-4.8 8.8-7.2 16.8-4.8 18.4s10.4 6.4 18.4 10.4c8 4.8 14.4 13.6 14.4 19.2s0 11.2 0.8 11.2c0 0 0 0.8 0 0.8s-0.8 5.6-0.8 11.2c0 6.4-6.4 14.4-14.4 19.2s-16 9.6-18.4 10.4c-2.4 1.6 0 9.6 4.8 18.4s11.2 14.4 13.6 13.6c2.4-1.6 11.2-6.4 18.4-11.2s18.4-5.6 24-3.2c5.6 3.2 9.6 5.6 9.6 5.6s0 0 0 0 0 0 0 0 4 2.4 9.6 5.6c5.6 3.2 9.6 15.2 9.6 27.2s8 21.6 18.4 21.6c9.6 0 18.4-9.6 18.4-21.6s4-24 9.6-27.2c5.6-3.2 9.6-5.6 9.6-5.6s0 0 0 0 0 0 0 0 4-2.4 9.6-5.6c5.6-3.2 13.6-3.2 19.2 0s13.6 8 18.4 11.2c4.8 3.2 13.6-1.6 18.4-10.4s7.2-16.8 4.8-18.4c-2.4-1.6-10.4-6.4-18.4-10.4-8-4.8-14.4-13.6-14.4-19.2 0-6.4 0-11.2-0.8-11.2 0 0 0-0.8 0-0.8s0.8-5.6 0.8-11.2 6.4-14.4 14.4-19.2c8-4 16.8-8.8 19.2-9.6zM267.2 288c-36 8-68-23.2-60-60 4-18.4 18.4-32.8 36.8-36.8 36-8 68 23.2 60 60-4 18.4-18.4 32.8-36.8 36.8zM264 210.4c-23.2-6.4-44 14.4-37.6 37.6 2.4 10.4 11.2 18.4 20.8 20.8 23.2 6.4 44-14.4 37.6-37.6-2.4-9.6-10.4-17.6-20.8-20.8z" />
<glyph unicode="&#xe90a;" glyph-name="user-list" d="M329.6 229.6c0-19.2-0.8-20-20-20-20.8 0-20.8 0-20.8 20.8 0 19.2 0.8 20 20 20 3.2 0 6.4 0 9.6 0 8 0 11.2-4 11.2-11.2 0-3.2 0-6.4 0-9.6zM329.6 169.6c0-19.2-0.8-20-20-20-20.8 0-20.8 0-20.8 20.8 0 19.2 0.8 20 20 20 0 0 0.8 0 0.8 0 18.4 0.8 20.8-1.6 20-20.8zM308.8 88.8c-19.2 0-20 0.8-20 20 0 4 0 7.2 0 11.2 0 5.6 4 9.6 9.6 9.6 7.2 0 14.4 0 20.8 0s9.6-4 10.4-10.4c0-6.4 0-12.8 0-18.4 0-8-4-11.2-11.2-12-3.2 0-6.4 0-9.6 0zM378.4 219.2c-8 0-16 0-24 0-4 0-5.6 1.6-5.6 5.6 0 18.4-2.4 15.2 15.2 15.2 13.6 0 26.4 0 40 0 4.8 0 6.4-1.6 6.4-6.4 0-17.6 1.6-14.4-14.4-15.2-6.4 0.8-12 0.8-17.6 0.8 0 0 0 0 0 0zM380 159.2c-8 0-16.8 0-24.8 0-4 0-6.4 1.6-6.4 5.6 0 18.4-1.6 15.2 14.4 15.2 13.6 0 26.4 0 40 0 4.8 0 6.4-0.8 6.4-6.4-0.8-17.6 2.4-14.4-14.4-14.4-4.8 0-10.4 0-15.2 0 0 0 0 0 0 0zM379.2 99.2c-8 0-16 0-24 0-4 0-5.6 1.6-5.6 5.6 0 19.2-2.4 15.2 14.4 15.2 13.6 0 26.4 0 40 0 4.8 0 6.4-1.6 6.4-6.4 0-18.4 1.6-14.4-14.4-15.2-5.6 0.8-11.2 0.8-16.8 0.8zM188.8 80c-18.4 0-36 0-48.8 0.8-23.2 0.8-32 11.2-36 19.2-8 19.2 8 39.2 15.2 47.2 9.6 10.4 34.4 19.2 83.2 33.6 8.8 2.4 16 4.8 20.8 6.4 0.8 0 0.8 0.8 1.6 1.6 0 3.2-1.6 6.4-3.2 8.8-22.4 10.4-30.4 30.4-35.2 41.6-0.8 1.6-1.6 4-2.4 5.6-5.6 2.4-12 8-13.6 22.4 0 3.2-3.2 30.4 12 38.4 1.6 2.4 1.6 9.6 2.4 13.6v1.6c0 29.6 18.4 79.2 85.6 79.2 24.8 0 46.4-8 61.6-24 18.4-18.4 24-43.2 24-59.2 0-4 0-4 2.4-5.6s6.4-4.8 8.8-10.4c0.8-2.4 3.2-8 1.6-32.8-0.8-8.8-8-15.2-16.8-15.2-8.8 0.8-15.2 8-15.2 16.8 0.8 5.6 0.8 12.8 0.8 16.8-5.6 4.8-13.6 13.6-13.6 30.4 0 5.6-2.4 23.2-14.4 36-8.8 9.6-22.4 14.4-38.4 14.4-49.6 0-53.6-36.8-53.6-47.2 0-0.8 0-0.8 0-1.6v-2.4c-0.8-11.2-2.4-27.2-14.4-36 0-2.4-0.8-6.4 0-8.8 8-4.8 11.2-13.6 14.4-20.8 4-10.4 8-20 20-24.8 0.8 0 0.8-0.8 1.6-0.8 12.8-8 20.8-24 19.2-39.2-1.6-13.6-9.6-24.8-22.4-28.8-4.8-1.6-12.8-4-21.6-6.4-18.4-5.6-62.4-17.6-69.6-24-4-4-7.2-8-8-11.2 0.8-1.6 4-1.6 6.4-1.6 36-1.6 120 0 120.8 0 8.8 0 16-7.2 16-16s-7.2-16-16-16c-4-0.8-40.8-1.6-75.2-1.6zM188 243.2c0 0 0 0 0 0s0 0 0 0zM183.2 306.4c0 0 0 0 0 0s0 0 0 0z" />
<glyph unicode="&#xe90b;" glyph-name="wallet" d="M380 371.2h-248c-20 0-36-16-36-36v-190.4c0-20 16-36 36-36h248c20 0 36 16 36 36v190.4c0 20-16 36-36 36zM384 144.8c0-2.4-1.6-4-4-4h-248c-2.4 0-4 1.6-4 4v117.6h256v-117.6zM384 294.4h-256v40.8c0 2.4 1.6 4 4 4h248c2.4 0 4-1.6 4-4v-40.8zM169.6 204.8h96.8v-20h-96.8v20zM296.8 204.8h40v-20h-40v20z" />
<glyph unicode="&#xe90c;" glyph-name="sign-ada" d="M230.4 262.4c-8 0-15.2 4.8-19.2 12-5.6 10.4-0.8 24 9.6 28.8 3.2 1.6 6.4 2.4 9.6 2.4 8 0 16-4.8 19.2-12 5.6-10.4 0.8-24-9.6-28.8-3.2-1.6-6.4-2.4-9.6-2.4zM205.6 218.4c-0.8 0-0.8 0-1.6 0-12 0.8-20.8 11.2-20 22.4 0.8 12 11.2 20.8 22.4 20 12-0.8 20.8-11.2 20-22.4 0-11.2-9.6-20-20.8-20zM230.4 174.4c-4 0-8 1.6-12 3.2-4.8 3.2-8 8-9.6 13.6-0.8 5.6 0 11.2 3.2 16 4 6.4 10.4 9.6 18.4 9.6 4 0 8-1.6 12-3.2 4.8-3.2 8-8 9.6-13.6 0.8-5.6 0-11.2-3.2-16-4-6.4-11.2-9.6-18.4-9.6zM281.6 174.4c-8 0-16 4.8-19.2 12-2.4 4.8-3.2 11.2-1.6 16.8s5.6 9.6 10.4 12.8c3.2 1.6 6.4 2.4 9.6 2.4 8 0 16-4.8 19.2-12 5.6-10.4 0.8-24-9.6-28.8-2.4-2.4-5.6-3.2-8.8-3.2zM307.2 218.4c-0.8 0-0.8 0-1.6 0-12 0.8-20.8 11.2-20 22.4 0.8 12 11.2 20.8 22.4 20 5.6 0 11.2-3.2 15.2-7.2s5.6-9.6 5.6-15.2c-0.8-11.2-10.4-20-21.6-20zM281.6 262.4c-4 0-8 1.6-12 3.2-9.6 6.4-12.8 20-6.4 29.6 4 6.4 10.4 9.6 18.4 9.6 4 0 8-1.6 12-3.2 9.6-6.4 12.8-20 6.4-29.6-4.8-5.6-11.2-9.6-18.4-9.6zM208.8 342.4c2.4-5.6 0.8-12-4.8-14.4s-12-0.8-14.4 4.8v0c-2.4 5.6-0.8 12 4.8 14.4 5.6 3.2 12 0.8 14.4-4.8zM144 250.4c5.6 0 10.4-5.6 10.4-11.2s-5.6-10.4-11.2-10.4c-5.6 0-10.4 5.6-10.4 11.2 0 6.4 4.8 11.2 11.2 10.4zM190.4 148c3.2 4.8 9.6 6.4 15.2 3.2v0c4.8-3.2 6.4-9.6 3.2-15.2-3.2-4.8-9.6-6.4-15.2-3.2-4.8 3.2-6.4 10.4-3.2 15.2zM303.2 137.6c-2.4 5.6-0.8 12 4.8 14.4s12 0.8 14.4-4.8c2.4-5.6 0.8-12-4.8-14.4-5.6-3.2-12-0.8-14.4 4.8v0zM368 229.6c-5.6 0-10.4 5.6-10.4 11.2s5.6 10.4 11.2 10.4v0c5.6 0 10.4-5.6 10.4-11.2 0-6.4-4.8-11.2-11.2-10.4zM321.6 332c-3.2-4.8-9.6-6.4-15.2-3.2s-6.4 9.6-3.2 15.2v0c3.2 4.8 9.6 6.4 15.2 3.2v0c4.8-3.2 6.4-10.4 3.2-15.2zM185.6 376c1.6-3.2 0-8-3.2-9.6s-8 0-9.6 3.2v0c-1.6 3.2 0 8 3.2 9.6s8 0 9.6-3.2zM103.2 246.4c4 0 6.4-3.2 6.4-7.2v0c0-4-3.2-6.4-7.2-6.4s-6.4 3.2-6.4 7.2v0c0 4 3.2 7.2 7.2 6.4zM173.6 111.2c2.4 3.2 6.4 4 9.6 2.4v0c3.2-2.4 4-6.4 1.6-9.6v0c-2.4-3.2-6.4-4-9.6-2.4-2.4 1.6-3.2 6.4-1.6 9.6zM326.4 104c-1.6 3.2 0 8 3.2 9.6s8 0 9.6-3.2v0c1.6-3.2 0-8-3.2-9.6v0c-3.2-1.6-8 0-9.6 3.2zM408.8 233.6c-4 0-6.4 3.2-6.4 7.2s3.2 6.4 7.2 6.4v0c4 0 6.4-3.2 6.4-7.2s-3.2-7.2-7.2-6.4zM338.4 368.8c-2.4-3.2-6.4-4-9.6-2.4-3.2 2.4-4 6.4-2.4 9.6 2.4 3.2 6.4 4 9.6 2.4v0c3.2-1.6 4-6.4 2.4-9.6zM187.2 293.6c5.6-4 7.2-12 4-17.6-4-5.6-12-7.2-17.6-4v0c-5.6 4-7.2 12-4 17.6 4 6.4 12 8 17.6 4zM175.2 208c6.4 3.2 13.6 0.8 16.8-5.6s0.8-13.6-5.6-16.8c-6.4-3.2-13.6-0.8-16.8 5.6-3.2 5.6-0.8 13.6 5.6 16.8zM242.4 153.6c0.8 7.2 6.4 12 13.6 12s12-6.4 12-13.6-6.4-12-13.6-12v0c-7.2 0.8-12 6.4-12 13.6zM324.8 186.4c-5.6 4-7.2 12-4 17.6 4 5.6 12 7.2 17.6 4 5.6-4 7.2-12 4-17.6-4-6.4-12-8-17.6-4zM336.8 272c-6.4-3.2-13.6-0.8-16.8 5.6s-0.8 13.6 5.6 16.8 13.6 0.8 16.8-5.6c3.2-5.6 0.8-13.6-5.6-16.8zM268.8 326.4c-0.8-7.2-6.4-12-13.6-12s-12 6.4-12 13.6v0c0 7.2 6.4 12 13.6 12 6.4-0.8 12-6.4 12-13.6zM140 316.8c4-2.4 5.6-8 2.4-12-2.4-4-8-5.6-12-2.4v0c-4 2.4-5.6 8-2.4 12 2.4 4 8 4.8 12 2.4zM132 178.4c4 2.4 9.6 0.8 12-4v0c2.4-4 0.8-9.6-4-12-4-2.4-9.6-0.8-12 4-2.4 4-0.8 9.6 4 12zM246.4 101.6c0 4.8 4.8 8.8 9.6 8v0c4.8 0 8.8-4.8 8-9.6v0c0-4.8-4.8-8.8-9.6-8v0c-4 0-8 4.8-8 9.6v0zM372 163.2c-4 2.4-5.6 8-2.4 12 2.4 4 8 5.6 12 2.4 4-2.4 5.6-8 2.4-12-2.4-4-8-4.8-12-2.4v0zM380 301.6c-4-2.4-9.6-0.8-12 4-2.4 4-0.8 9.6 4 12v0c4 2.4 9.6 0.8 12-4v0c2.4-4 0.8-9.6-4-12zM264.8 378.4c0-4.8-4.8-8.8-9.6-8-4.8 0-8.8 4.8-8 9.6 0 4.8 4.8 8.8 9.6 8 4 0 8-4.8 8-9.6v0z" />
<glyph unicode="&#xe90d;" glyph-name="sign-bch" d="M379.2 234.4c-4 20-16 29.6-25.6 35.2-12 4-25.6 4-25.6 4s9.6 9.6 13.6 17.6 1.6 20 1.6 24c-1.6 5.6-5.6 27.2-27.2 37.6-16 5.6-33.6 5.6-55.2 1.6l-12 45.6-27.2-8 12-45.6-21.6-5.6-12 44.8-29.6-5.6 12-45.6-55.2-13.6 8-29.6 16 4c4 1.6 12 1.6 17.6 0 4-1.6 5.6-4 8-12l29.6-116c0-1.6 1.6-5.6 0-9.6-1.6-1.6-4-4-9.6-5.6l-17.6-4 1.6-35.2 55.2 13.6 12-45.6 27.2 8-12 45.6 21.6 5.6 12-45.6 27.2 8-9.6 45.6c8 1.6 13.6 4 17.6 5.6v0c8 4 25.6 9.6 39.2 25.6 14.4 17.6 14.4 37.6 8 55.2v0zM233.6 256l-13.6 55.2c0 0 8 4 17.6 5.6s17.6 4 29.6 4 21.6-8 24-17.6c1.6-9.6 0-17.6-5.6-25.6-5.6-5.6-17.6-12-27.2-13.6-11.2-4-24.8-8-24.8-8zM318.4 191.2c-5.6-5.6-17.6-12-29.6-16-13.6-4-33.6-8-33.6-8l-16 60.8c0 0 17.6 5.6 31.2 8 13.6 1.6 27.2 1.6 33.6 0 5.6-1.6 16-4 20-17.6 6.4-13.6-1.6-21.6-5.6-27.2z" />
<glyph unicode="&#xe90e;" glyph-name="sign-bnb" d="M256 327.2l62.4-62.4 36 36c0 0-99.2 97.6-99.2 98.4l-96.8-97.6 36-36 61.6 61.6zM256 152.8l-62.4 62.4-36-36c0 0 99.2-97.6 99.2-98.4l96.8 96.8-36 36-61.6-60.8zM96.8 240l36 36 36-36-36-36-36 36zM220 240l36 36 36-36-36-36-36 36zM344 240l36 36 36-36-36-36-36 36z" />
<glyph unicode="&#xe90f;" glyph-name="sign-brl" d="M136.8 219.2c0-24 0-47.2 0-72-13.6-0.8-27.2-0.8-40.8 0 0 63.2 0 124.8 0 187.2 4 0 7.2 0.8 10.4 0.8 29.6 0 59.2 0 89.6 0 9.6 0 18.4-0.8 27.2-4.8 20.8-8.8 32.8-29.6 30.4-53.6-1.6-18.4-9.6-32-28.8-42.4 1.6 0 3.2-0.8 4-1.6 12.8-6.4 18.4-17.6 20.8-30.4 1.6-7.2 1.6-13.6 2.4-20.8 0-12 1.6-23.2 6.4-35.2-13.6 0-27.2 0-40 0-4 8.8-4 17.6-4.8 27.2-0.8 7.2-1.6 14.4-2.4 21.6-3.2 16-11.2 23.2-28 24-13.6 0-26.4 0-40 0-2.4 0.8-4 0-6.4 0zM137.6 249.6c5.6 0 11.2 0 16.8 0 12 0 23.2 0 35.2 0.8 7.2 0 13.6 3.2 17.6 9.6 11.2 17.6 1.6 40-19.2 43.2-1.6 0-4 0-5.6 0-12.8 0-25.6 0-38.4 0-2.4 0-4-0.8-6.4-0.8 0-17.6 0-34.4 0-52.8zM332.8 340c0.8 7.2 1.6 12.8 1.6 20 4.8 0 8.8 0 14.4 0 0-6.4 0.8-12.8 0.8-19.2 5.6-1.6 10.4-2.4 16-4 28.8-8 43.2-31.2 42.4-52.8-11.2 0-23.2 0-35.2 0-3.2 11.2-6.4 22.4-21.6 24 0-15.2 0-30.4 0-45.6 2.4-0.8 5.6-1.6 8.8-3.2 9.6-4 20-6.4 29.6-11.2 35.2-19.2 35.2-69.6 4.8-91.2-10.4-8-22.4-12.8-35.2-14.4-2.4 0-4.8-0.8-8-0.8 0-7.2-0.8-14.4-0.8-21.6-4.8 0-9.6 0-14.4 0-0.8 7.2-0.8 13.6-1.6 21.6-20 2.4-39.2 8-52 25.6-8 12-12 24.8-12.8 39.2 12 2.4 24 1.6 36 0.8 0.8-17.6 9.6-29.6 28-33.6 2.4 18.4 0 36 0.8 54.4-6.4 1.6-12 4-18.4 5.6-9.6 3.2-18.4 6.4-26.4 12.8-9.6 8-15.2 17.6-16 30.4-3.2 33.6 16.8 56 50.4 62.4 2.4 0 5.6 0 8.8 0.8zM350.4 174.4c16 0.8 27.2 10.4 27.2 24s-9.6 22.4-27.2 23.2c0-16 0-32 0-47.2zM333.6 308c-15.2-0.8-22.4-8-23.2-20-0.8-12.8 6.4-19.2 23.2-20.8 0 12.8 0 26.4 0 40.8z" />
<glyph unicode="&#xe910;" glyph-name="sign-btc" d="M353.6 240.8c-10.4 8-24.8 11.2-24.8 11.2s12 7.2 17.6 14.4c4.8 7.2 8 18.4 8 24 0.8 5.6 1.6 30.4-17.6 44-14.4 10.4-31.2 15.2-53.6 16.8v48.8h-30.4v-48h-23.2v48h-29.6v-48h-59.2v-32h17.6c4.8 0 13.6-0.8 16.8-4.8s4-6.4 4-13.6v-124.8c0-3.2-0.8-6.4-3.2-8.8s-4.8-3.2-11.2-3.2h-18.4l-6.4-36h60v-48h30.4v48h23.2v-48h30.4v48.8c8 0.8 15.2 0.8 19.2 1.6 8.8 0.8 28 3.2 46.4 16s22.4 32.8 22.4 52.8c0 19.2-8 33.6-18.4 40.8v0zM230.4 317.6c0 0 9.6 0.8 19.2 0.8s17.6-0.8 30.4-4c12-4 20-12.8 20-24s-4.8-18.4-12.8-23.2c-8.8-4.8-20-7.2-31.2-8s-24.8 0-24.8 0l-0.8 58.4zM297.6 172.8c-7.2-4-20.8-7.2-34.4-8s-33.6-0.8-33.6-0.8v64.8c0 0 19.2 0.8 34.4 0s27.2-4.8 32.8-8c5.6-3.2 15.2-8.8 15.2-24 0.8-13.6-7.2-20-14.4-24z" />
<glyph unicode="&#xe911;" glyph-name="sign-chf" d="M376 345.6c0-3.2-2.4-6.4-6.4-6.4h-137.6v-59.2h102.4c3.2 0 6.4-2.4 6.4-6.4v-47.2c0-3.2-2.4-6.4-6.4-6.4h-102.4v-47.2h29.6c3.2 0 6.4-2.4 6.4-6.4v-36.8c0-3.2-2.4-6.4-6.4-6.4h-29.6v-36.8c0-3.2-2.4-6.4-6.4-6.4h-47.2c-3.2 0-6.4 2.4-6.4 6.4v36.8h-29.6c-3.2 0-6.4 2.4-6.4 6.4v36.8c0 3.2 2.4 6.4 6.4 6.4h29.6v220.8c0 3.2 2.4 6.4 6.4 6.4h191.2c3.2 0 6.4-2.4 6.4-6.4v-48z" />
<glyph unicode="&#xe912;" glyph-name="sign-cny" d="M376.8 386.4l-56.8-106.4h41.6c4.8 0 8.8-4 8.8-8.8v-22.4c0-4.8-4-8.8-8.8-8.8h-62.4l-14.4-26.4v-19.2h76.8c4.8 0 8.8-4 8.8-8.8v-22.4c0-4.8-4-8.8-8.8-8.8h-76.8v-65.6c0-4.8-4-8.8-8.8-8.8h-40c-4.8 0-8.8 4-8.8 8.8v65.6h-76.8c-4.8 0-8.8 4-8.8 8.8v22.4c0 4.8 4 8.8 8.8 8.8h76.8v19.2l-13.6 26.4h-62.4c-4.8 0-8.8 4-8.8 8.8v22.4c0 4.8 4 8.8 8.8 8.8h40.8l-56.8 107.2c-3.2 5.6 0.8 12.8 7.2 12.8h46.4c3.2 0 6.4-1.6 8-4.8l39.2-80.8c10.4-24.8 19.2-51.2 19.2-51.2h0.8c0 0 8.8 26.4 19.2 51.2l39.2 80.8c1.6 3.2 4.8 4.8 8 4.8h46.4c7.2-0.8 11.2-8 8-13.6z" />
<glyph unicode="&#xe913;" glyph-name="sign-dash" d="M225.6 262.4h-116.8l-13.6-44h116.8l13.6 44zM411.2 318.4c-6.4 12.8-19.2 17.6-29.6 17.6h-218.4l-14.4-48h195.2l-29.6-96h-196.8l-14.4-48h209.6c20.8 0 25.6 3.2 40.8 12s26.4 23.2 32 41.6c6.4 17.6 21.6 68 25.6 84.8 4.8 16.8 6.4 24 0 36v0z" />
<glyph unicode="&#xe914;" glyph-name="sign-eos" d="M373.6 151.2l-38.4 148.8c0 0.8-0.8 1.6-1.6 2.4l-71.2 94.4c-2.4 3.2-7.2 4-11.2 1.6-0.8-0.8-0.8-0.8-1.6-1.6l-72-94.4c-0.8-0.8-0.8-1.6-1.6-2.4l-37.6-148.8c-0.8-3.2 0.8-7.2 4-8.8l110.4-60.8c2.4-1.6 4.8-1.6 7.2 0l110.4 60.8c2.4 1.6 4 5.6 3.2 8.8zM345.6 195.2l-29.6 46.4 9.6 28.8 20-75.2zM264 368.8l55.2-72-12.8-37.6-42.4 65.6v44zM256 308.8l43.2-68.8-28-83.2h-30.4l-28 82.4 43.2 69.6zM248 368.8v-44l-42.4-67.2-12.8 38.4 55.2 72.8zM184.8 270.4l10.4-29.6-29.6-46.4 19.2 76zM201.6 222.4l22.4-65.6h-64l41.6 65.6zM176 141.6h53.6l12.8-36.8-66.4 36.8zM256 112l-10.4 28.8h20l-9.6-28.8zM269.6 104.8l12.8 36.8h53.6l-66.4-36.8zM287.2 156.8l22.4 66.4 41.6-66.4h-64z" />
<glyph unicode="&#xe915;" glyph-name="sign-eth" d="M256 179.2l-94.4 57.6 94.4 162.4 94.4-162.4-94.4-57.6zM350.4 218.4l-94.4-137.6-94.4 137.6 94.4-57.6 94.4 57.6z" />
<glyph unicode="&#xe916;" glyph-name="sign-eur" d="M369.6 96c0.8-4.8-1.6-8.8-6.4-9.6-8.8-2.4-24.8-5.6-43.2-5.6-74.4 0-129.6 46.4-147.2 110.4h-21.6c-4.8 0-8.8 4-8.8 8.8v20c0 4.8 4 8.8 8.8 8.8h15.2c-0.8 9.6-0.8 20 0 30.4h-15.2c-4.8 0-8.8 4-8.8 8.8v20c0 4.8 4 8.8 8.8 8.8h23.2c20.8 59.2 76 102.4 145.6 102.4 15.2 0 28.8-2.4 37.6-4 4.8-0.8 8-5.6 6.4-10.4l-8.8-31.2c-0.8-4-5.6-7.2-9.6-6.4-6.4 1.6-16.8 3.2-27.2 3.2-39.2 0-68.8-21.6-83.2-53.6h98.4c5.6 0 9.6-4.8 8-10.4l-4.8-20.8c-0.8-4-4.8-6.4-8-6.4h-104.8c-0.8-9.6-0.8-20 0-30.4h96c5.6 0 9.6-4.8 8-10.4l-4.8-20c-0.8-4-4.8-6.4-8-6.4h-80.8c13.6-36 45.6-60.8 86.4-60.8 12.8 0 24.8 2.4 32 4 4.8 0.8 9.6-1.6 10.4-6.4l6.4-32.8z" />
<glyph unicode="&#xe917;" glyph-name="sign-gbp" d="M369.6 163.2v-73.6c0-4.8-4-8.8-8.8-8.8h-210.4c-4.8 0-8.8 4-8.8 8.8v28.8c0 4.8 4 8.8 8.8 8.8h25.6v90.4h-20c-4.8 0-8.8 4-8.8 8.8v28.8c0 4.8 4 8.8 8.8 8.8h20v47.2c0 52 41.6 89.6 99.2 89.6 34.4 0 60.8-16 72-24.8 4-3.2 4.8-8.8 1.6-12l-20-25.6c-2.4-3.2-7.2-4-11.2-1.6-8 5.6-24 13.6-40.8 13.6-26.4 0-44-17.6-44-40.8v-45.6h60c4.8 0 8.8-4 8.8-8.8v-28.8c0-4.8-4-8.8-8.8-8.8h-60v-90.4h87.2v36c0 4.8 4 8.8 8.8 8.8h32c5.6 0 8.8-4 8.8-8.8z" />
<glyph unicode="&#xe918;" glyph-name="sign-waves" d="M96 240l160 160 160-160-160-160z" />
<glyph unicode="&#xe919;" glyph-name="sign-jpy, sign-yen" d="M371.2 396c-0.846 2.33-3.027 3.97-5.596 4h-43.203c-0.151 0.013-0.327 0.020-0.503 0.020-2.666 0-4.947-1.646-5.882-3.977l-0.015-0.043-44-96c-0.8-2.4-3.2-7.2-6.4-13.6s-5.6-12-7.2-15.2c-5.6 12.8-9.6 22.4-12.8 28.8l-48.8 96.8c-1.338 2.247-3.668 3.781-6.371 3.998l-0.029 0.002h-44c-2.732-0.219-5.063-1.753-6.38-3.962l-0.020-0.038c-0.749-0.99-1.2-2.243-1.2-3.6s0.451-2.61 1.211-3.615l-0.011 0.015 72.8-131.2h-48.8c-0.044 0.002-0.097 0.002-0.15 0.002-1.911 0-3.603-0.941-4.638-2.385l-0.012-0.017c-1.371-1.18-2.27-2.874-2.399-4.779l-0.001-0.021v-24c-0.002-0.060-0.003-0.132-0.003-0.203 0-2.139 0.925-4.062 2.397-5.392l0.006-0.005c1.18-1.371 2.874-2.271 4.779-2.399l0.021-0.001h65.6v-19.2h-65.6c-0.044 0.002-0.097 0.002-0.15 0.002-1.911 0-3.603-0.941-4.638-2.385l-0.012-0.017c-1.371-1.18-2.27-2.873-2.399-4.779l-0.001-0.021v-23.2c-0.002-0.060-0.003-0.132-0.003-0.203 0-2.139 0.925-4.062 2.397-5.392l0.006-0.005c1.18-1.371 2.874-2.271 4.779-2.399l0.021-0.001h65.6v-75.2c-0.002-0.060-0.003-0.132-0.003-0.203 0-2.139 0.925-4.062 2.397-5.392l0.006-0.005c1.18-1.371 2.874-2.271 4.779-2.399l0.021-0.001h39.2c0.045-0.002 0.098-0.002 0.15-0.002 1.911 0 3.603 0.941 4.638 2.385l0.012 0.017c1.371 1.18 2.271 2.873 2.399 4.779l0.001 0.021v75.2h65.6c0.045-0.002 0.098-0.002 0.15-0.002 1.911 0 3.603 0.941 4.638 2.385l0.012 0.017c1.478 1.334 2.403 3.258 2.403 5.397 0 0.072-0.001 0.142-0.003 0.214v-0.010 23.2c0.002 0.045 0.002 0.098 0.002 0.15 0 1.911-0.941 3.603-2.385 4.638l-0.017 0.012c-1.6 0.8-2.4 3.2-4 3.2h-65.6v19.2h65.6c0.045-0.002 0.098-0.002 0.15-0.002 1.911 0 3.603 0.941 4.638 2.385l0.012 0.017c1.478 1.334 2.403 3.258 2.403 5.397 0 0.072-0.001 0.142-0.003 0.214v-0.010 24c0.002 0.044 0.002 0.097 0.002 0.15 0 1.911-0.941 3.603-2.385 4.638l-0.017 0.012c-1.18 1.371-2.873 2.271-4.779 2.399l-0.021 0.001h-48.8l71.2 131.2c0.361 0.752 0.572 1.635 0.572 2.567 0 1.46-0.518 2.8-1.381 3.844l0.008-0.010z" />
<glyph unicode="&#xe91a;" glyph-name="sign-idr" d="M344 319.2c-0.938 0.051-2.036 0.080-3.14 0.080-19.428 0-36.743-9.046-47.964-23.155l-0.096-0.125v16c0.005 0.068 0.007 0.148 0.007 0.227 0 2.087-1.692 3.779-3.779 3.779-0.080 0-0.159-0.002-0.238-0.007l0.011 0h-24c-0.8 0-2.4 0-2.4-0.8-0.509-0.527-0.822-1.246-0.822-2.039 0-0.127 0.008-0.252 0.024-0.375l-0.002 0.014v-223.2c0.152-0.899 0.431-1.705 0.821-2.444l-0.021 0.044c0.527-0.509 1.247-0.822 2.039-0.822 0.127 0 0.252 0.008 0.375 0.024l-0.014-0.002h24.8c0.068-0.005 0.147-0.007 0.228-0.007 2.087 0 3.779 1.692 3.779 3.779 0 0.080-0.002 0.159-0.007 0.238l0-0.011v75.2c11.469-11.373 27.261-18.4 44.695-18.4 0.037 0 0.074 0 0.111 0h-0.005c36.8 0 76.8 28 76.8 88.8 0.8 48-29.6 83.2-71.2 83.2zM339.2 176c-25.6 0-46.4 25.6-46.4 56s20.8 56 46.4 56 46.4-25.6 46.4-56-20-56-46.4-56zM209.6 272c17.137 13.288 28.061 33.88 28.061 57.024 0 1.047-0.023 2.089-0.066 3.125l0.005-0.148c0.032 0.716 0.052 1.557 0.052 2.402 0 16.474-7.099 31.291-18.405 41.557l-0.047 0.041c-14.4 12.8-34.4 18.4-65.6 18.4h-52.8c-0.058 0.002-0.125 0.004-0.193 0.004-2.546 0-4.611-2.065-4.611-4.611 0-0.068 0.001-0.135 0.004-0.202l-0.001 0.010v-215.2c-0.002-0.058-0.004-0.125-0.004-0.193 0-2.546 2.064-4.611 4.611-4.611 0.068 0 0.135 0.002 0.203 0.005l-0.010-0h27.2c0.057-0.002 0.125-0.004 0.193-0.004 2.547 0 4.611 2.065 4.611 4.611 0 0.068-0.001 0.135-0.005 0.202l0-0.010v88h40.8l32-88.8c0.523-1.88 2.22-3.237 4.233-3.237 0.2 0 0.397 0.014 0.589 0.039l-0.023-0.002h29.6c0.024-0 0.052-0 0.081-0 1.701 0 3.175 0.964 3.908 2.377l0.012 0.024c0.524 1.185 0.83 2.567 0.83 4.019 0 0.274-0.011 0.547-0.032 0.816l0.002-0.036zM200 328.8c0-21.6-16.8-35.2-43.2-35.2h-23.2v70.4h22.4c28.8-0.8 44-12.8 44-35.2z" />
<glyph unicode="&#xe91b;" glyph-name="sign-pln" d="M361.6 198.4v201.6h-27.2v-228.8l-17.6-17.6v-38.4l17.6 17.6v-52.8h27.2v80l17.6 17.6v38.4zM174.4 107.2l123.2 118.4v26.4h-164v-27.2h125.6l-125.6-118.4v-26.4h164v27.2z" />
<glyph unicode="&#xe91c;" glyph-name="sign-czk" d="M235.2 124l-70.4 113.6-32-39.2v-74.4h-36.8v234.4h36.8v-112l89.6 112h42.4l-76-92.8 86.4-142.4h-40zM292.8 143.2c-14.4 15.2-20.8 36.8-20.8 64-0.089 1.527-0.14 3.313-0.14 5.111 0 22.409 7.902 42.971 21.072 59.054l-0.131-0.165c14.017 14.382 33.578 23.303 55.222 23.303 1.399 0 2.789-0.037 4.17-0.111l-0.192 0.008c0.718 0.022 1.563 0.035 2.409 0.035 13.070 0 25.449-2.963 36.5-8.254l-0.51 0.219c10.928-5.255 19.704-13.517 25.452-23.713l0.149-0.287-20-17.6c-4.736 7.241-10.906 13.155-18.146 17.46l-0.254 0.14c-7.158 3.999-15.699 6.367-24.79 6.4h-0.010c-0.606 0.031-1.316 0.048-2.030 0.048-13.405 0-25.353-6.235-33.104-15.963l-0.066-0.086c-8.108-11.055-12.974-24.93-12.974-39.94 0-1.71 0.063-3.406 0.188-5.084l-0.014 0.224c-0.091-1.326-0.142-2.873-0.142-4.433 0-15.146 4.851-29.159 13.082-40.572l-0.14 0.205c7.604-9.819 19.396-16.079 32.65-16.079 0.897 0 1.788 0.029 2.671 0.085l-0.12-0.006c9.101 0.033 17.642 2.401 25.065 6.535l-0.264-0.135c7.493 4.445 13.663 10.359 18.271 17.39l0.129 0.21 20-17.6c-6.324-10.142-14.979-18.284-25.245-23.825l-0.356-0.175c-10.541-5.072-22.92-8.034-35.99-8.034-0.848 0-1.692 0.012-2.533 0.037l0.123-0.003c-2.453-0.305-5.292-0.478-8.171-0.478-20.103 0-38.226 8.473-50.995 22.043l-0.034 0.036zM302.4 360h28.8l21.6-28.8 21.6 28.8h28.8l-40-50.4h-21.6z" />
<glyph unicode="&#xe91d;" glyph-name="sign-mxn" d="M340.8 179.2c0-40.8-34.4-64.8-73.6-67.2v-24c0.041-0.271 0.064-0.582 0.064-0.9 0-3.514-2.849-6.364-6.364-6.364-0.317 0-0.63 0.023-0.935 0.068l0.034-0.004h-8c-0.27-0.041-0.583-0.064-0.9-0.064-3.514 0-6.364 2.849-6.364 6.364 0 0.317 0.023 0.63 0.068 0.935l-0.004-0.034v24c-39.2 4.8-70.4 28-73.6 69.6 0 5.6 2.4 8 7.2 8h18.4c0.194 0.018 0.419 0.029 0.648 0.029 4.018 0 7.282-3.221 7.352-7.222v-0.007c3.2-20.8 18.4-33.6 40.8-37.6v84c-33.6 12.8-68.8 28.8-68.8 73.6 0 40 32.8 62.4 68.8 65.6v24.8c-0.041 0.27-0.064 0.582-0.064 0.9 0 3.514 2.85 6.364 6.364 6.364 0.317 0 0.63-0.023 0.935-0.068l-0.035 0.004h8c0.271 0.041 0.582 0.064 0.9 0.064 3.514 0 6.364-2.85 6.364-6.364 0-0.317-0.023-0.629-0.068-0.935l0.004 0.035v-24.8c35.2-4 64.8-26.4 68.8-65.6 0-5.6-2.4-8-7.2-8h-17.6c-0.194-0.018-0.42-0.029-0.647-0.029-4.017 0-7.282 3.221-7.353 7.222v0.007c-2.927 18.064-17.622 31.94-35.846 33.588l-0.154 0.012v-82.4c34.4-12.8 72.8-28.8 72.8-73.6zM208.8 302.4c0-20 15.2-32 36-40.8v74.4c-20.8-2.4-36-13.6-36-33.6zM308 179.2c0 20.8-18.4 32.8-40.8 41.6v-76.8c24 1.6 40.8 14.4 40.8 35.2z" />
<glyph unicode="&#xe91e;" glyph-name="sign-php" d="M171.2 80v187.2h-42.4v20.8h42.4v21.6h-42.4v21.6h42.4v68.8h82.4c35.2 0 60.8-5.6 76.8-16s26.4-28 30.4-53.6h22.4v-21.6h-21.6v-2.4l-1.6-16v-2.4h23.2v-20.8h-28.8l-0.8-3.2c-9.721-21.215-25.479-38.261-45.065-49.322l-0.535-0.278c-21.437-10.612-46.677-16.82-73.368-16.82-0.925 0-1.849 0.007-2.771 0.022l0.139-0.002h-18.4v-117.6zM213.6 331.2h103.2c-3.062 11.945-10.929 21.644-21.368 27.089l-0.233 0.111c-13.063 4.691-28.135 7.403-43.84 7.403-2.589 0-5.161-0.074-7.714-0.219l0.353 0.016h-30.4zM213.6 288h104c1.518 6.488 2.392 13.94 2.4 21.595v0.005h-106.4zM213.6 232h20c36.8 0 62.4 12 76 35.2h-96z" />
<glyph unicode="&#xe91f;" glyph-name="sign-sgd" d="M357.6 252.8v86.4c16.779-6.345 28.543-22.166 28.8-40.769l0-0.031c0-7.953 6.447-14.4 14.4-14.4s14.4 6.447 14.4 14.4v0c0 0.103 0.001 0.224 0.001 0.346 0 34.989-24.896 64.165-57.94 70.777l-0.461 0.077v16c0 7.953-6.447 14.4-14.4 14.4s-14.4-6.447-14.4-14.4v0-16c-33.459-6.995-58.252-36.181-58.4-71.183v-0.017c-0-0.103-0.001-0.224-0.001-0.346 0-34.989 24.896-64.165 57.94-70.777l0.461-0.077v-86.4c-16.779 6.345-28.543 22.166-28.8 40.769l-0 0.031c0 7.953-6.447 14.4-14.4 14.4s-14.4-6.447-14.4-14.4v0c-0-0.103-0.001-0.224-0.001-0.346 0-34.99 24.896-64.165 57.94-70.777l0.461-0.077v-16c0-7.953 6.447-14.4 14.4-14.4s14.4 6.447 14.4 14.4v0 16c33.459 6.995 58.252 36.181 58.4 71.183v0.017c0 0.103 0.001 0.224 0.001 0.346 0 34.99-24.896 64.165-57.94 70.777l-0.461 0.077zM300 298.4c-0.002 0.153-0.003 0.333-0.003 0.513 0 18.583 11.905 34.385 28.505 40.196l0.298 0.091v-82.4c-16.969 6.497-28.8 22.649-28.8 41.565 0 0.012 0 0.024 0 0.036v-0.002zM357.6 140.8v82.4c16.779-6.345 28.543-22.166 28.8-40.769l0-0.031c0.013-0.39 0.020-0.849 0.020-1.309 0-18.589-11.913-34.395-28.522-40.2l-0.298-0.091zM168.8 341.6c0.038 0 0.083 0 0.128 0 24.23 0 43.872-19.642 43.872-43.872 0-0.045 0-0.090 0-0.135v0.007c0-7.953 6.447-14.4 14.4-14.4s14.4 6.447 14.4 14.4v0c0.003 0.238 0.005 0.519 0.005 0.8 0 40.207-32.594 72.8-72.8 72.8s-72.8-32.594-72.8-72.8c0-40.205 32.591-72.798 72.795-72.8v0c24.3 0 44-19.7 44-44s-19.7-44-44-44v0c-0.187-0.003-0.407-0.005-0.629-0.005-23.956 0-43.376 19.42-43.376 43.376 0 0.221 0.001 0.442 0.005 0.662l-0.001-0.034c0 7.953-6.447 14.4-14.4 14.4s-14.4-6.447-14.4-14.4v0c0-40.207 32.593-72.8 72.8-72.8s72.8 32.594 72.8 72.8c0 40.207-32.594 72.8-72.8 72.8v0c-24.079 0-43.6 19.52-43.6 43.6s19.52 43.6 43.6 43.6v0z" />
<glyph unicode="&#xe920;" glyph-name="sign-thb" d="M301.6 247.2l-11.2 3.2 10.4 4.8c21.6 9.6 32 24.8 32 46.4 0.012 0.377 0.019 0.821 0.019 1.266 0 5.891-1.183 11.505-3.324 16.618l0.106-0.284c-1.947 5.892-4.954 10.965-8.831 15.235l0.031-0.035c-3.755 4.522-8.265 8.266-13.361 11.079l-0.239 0.121c-5.771 3.146-12.459 5.635-19.519 7.115l-0.481 0.084c-6.711 1.088-14.446 1.71-22.327 1.71-1.995 0-3.981-0.040-5.957-0.119l0.284 0.009h-8v34.4c0 6.185-5.014 11.2-11.2 11.2s-11.2-5.014-11.2-11.2v0-34.4h-36.8c-0.821 0.099-1.772 0.155-2.736 0.155-5.99 0-11.472-2.177-15.697-5.783l0.034 0.028c-3.539-4.455-5.678-10.162-5.678-16.368 0-0.715 0.029-1.423 0.084-2.125l-0.006 0.092v-172c-0.133-0.93-0.208-2.003-0.208-3.095 0-5.884 2.203-11.253 5.829-15.329l-0.020 0.024c4.456-3.539 10.162-5.678 16.368-5.678 0.715 0 1.423 0.029 2.125 0.084l-0.093-0.006h37.6v-44c0-6.185 5.014-11.2 11.2-11.2s11.2 5.014 11.2 11.2v44h4c12 0 22.4 0.8 31.2 1.6 8.618 1.020 16.462 2.989 23.875 5.827l-0.675-0.227c10.272 4.542 18.695 11.679 24.67 20.594l0.13 0.206c5.541 8.461 8.837 18.825 8.837 29.959 0 0.717-0.014 1.432-0.041 2.143l0.003-0.103c-0.8 27.2-14.4 44-42.4 52.8zM280.8 323.2c9.147-4.678 15.301-14.037 15.301-24.833 0-0.833-0.036-1.658-0.108-2.472l0.007 0.106c0.005-0.19 0.007-0.413 0.007-0.637 0-6.012-1.794-11.605-4.875-16.273l0.068 0.111c-3.556-6.756-9.455-11.875-16.593-14.338l-0.207-0.063c-5.951-2.082-12.811-3.285-19.952-3.285-1.143 0-2.278 0.031-3.405 0.091l0.157-0.007v68c10.85-0.834 20.913-3.111 30.359-6.649l-0.759 0.25zM199.2 328.8h30.4v-68h-30.4zM199.2 160.8v76h30.4v-76zM253.6 160.8h-2.4v76h0.8c1.502 0.115 3.254 0.182 5.021 0.182 12.563 0 24.348-3.332 34.519-9.161l-0.339 0.18c8.763-5.87 14.454-15.733 14.454-26.925 0-0.659-0.020-1.315-0.058-1.964l0.005 0.089c0-17.6-9.6-38.4-52-38.4z" />
<glyph unicode="&#xe921;" glyph-name="sign-hkd" d="M167.2 227.2c-12.8 0.8-24.8 0-37.6 0.8 0-3.2 0-5.6 0-8 0-8.8 0-18.4 0-27.2 0-0.8 0-1.6 0-2.4-0.8-4-2.4-5.6-6.4-6.4-0.8 0-1.6 0-2.4 0-5.6 0-11.2 0-16.8 0s-8 2.4-8.8 8c0 1.6 0 2.4 0 4 0 30.4 0 60 0 90.4 0 1.6 0 4 0 5.6 0.8 4 2.4 5.6 6.4 6.4 7.2 0 13.6 0 20.8 0 4 0 6.4-2.4 6.4-6.4 0-0.8 0-2.4 0-4 0-9.6 0-19.2 0-28.8 0-1.6 0-3.2 0-4.8 6.4 0 12.8 0 19.2 0s12 0 19.2 0c0 1.6 0 2.4 0 3.2 0 10.4 0 20 0 30.4 0 1.6 0 2.4 0 4 0.8 4 2.4 6.4 7.2 7.2 6.4 0 13.6 0 20 0 4 0 5.6-2.4 6.4-6.4 0-1.6 0-3.2 0-4.8 0-10.4 0-20.8 0-31.2s0-20 0-30.4c0-11.2 0-21.6 0-32.8 0-0.8 0-1.6 0-2.4-0.8-4-2.4-6.4-7.2-6.4-3.2 0-5.6 0-8.8 0s-6.4 0-9.6 0c-5.6 0-8 2.4-8 8 0 8 0 16.8 0 24.8 0 2.4 0 5.6 0 9.6zM249.6 249.6c0.8 0.8 0.8 1.6 1.6 2.4 9.6 13.6 19.2 27.2 28 41.6 1.6 3.2 4 4 7.2 4 8 0 16 0 23.2 0 0.8 0 1.6 0 2.4 0 2.4-0.8 4-2.4 2.4-4.8-0.8-0.8-0.8-1.6-1.6-2.4-8.8-12.8-18.4-24.8-27.2-37.6-2.4-3.2-4.8-7.2-7.2-11.2 3.2-4.8 6.4-9.6 10.4-14.4 5.6-8 11.2-15.2 16.8-23.2 3.2-4 5.6-8 8.8-12 0.8-0.8 1.6-1.6 1.6-3.2 0.8-2.4 0-4-3.2-4.8-0.8 0-1.6 0-2.4 0-8 0-16 0-23.2 0-3.2 0-5.6 1.6-8 4-9.6 13.6-19.2 27.2-28.8 40.8-0.8 0.8-1.6 1.6-3.2 3.2 0-5.6 0-10.4 0-15.2 0-8 0-16.8 0-24.8 0-0.8 0-1.6 0-2.4-0.8-3.2-2.4-5.6-5.6-5.6-0.8 0-2.4 0-3.2 0-5.6 0-10.4 0-16 0-0.8 0-2.4 0-3.2 0-1.6 0-3.2 1.6-3.2 4.8 0 1.6 0 3.2 0 4.8 0 8 0 16.8 0 24.8 0 11.2-0.8 22.4-0.8 33.6 0 12 0 24 0.8 36 0 6.4 2.4 8.8 8.8 8.8 5.6 0 10.4 0 16 0 0.8 0 2.4 0 3.2 0 3.2-0.8 4.8-2.4 4.8-4.8 0-1.6 0-3.2 0-4.8 0-12.8 0-25.6 0.8-37.6v0zM333.6 213.6c1.6-0.8 3.2-1.6 4-2.4 10.4-5.6 20.8-8 32-7.2 2.4 0 4 0.8 6.4 0.8 4.8 1.6 7.2 7.2 4.8 12-1.6 2.4-3.2 5.6-6.4 6.4-6.4 2.4-12.8 4.8-19.2 8-7.2 3.2-13.6 6.4-19.2 11.2s-8.8 11.2-9.6 18.4c-0.8 5.6 0 11.2 1.6 16 3.2 8.8 9.6 14.4 18.4 17.6 1.6 0.8 4 1.6 6.4 2.4 0 2.4 0 4.8 0 7.2 0 5.6 2.4 7.2 8 8 4.8 0 10.4 0 15.2 0 5.6 0 8-2.4 8-8 0-1.6 0-3.2 0-4.8 0 0 0-0.8 0.8-0.8 8-1.6 15.2-3.2 22.4-7.2 1.6-0.8 2.4-1.6 4-3.2 0.8-0.8 0.8-1.6 1.6-3.2-3.2-6.4-7.2-12-11.2-17.6-1.6 0.8-3.2 1.6-4.8 2.4-8.8 4.8-19.2 6.4-28.8 4.8-6.4-1.6-9.6-7.2-7.2-12.8 0.8-1.6 2.4-3.2 4-4.8 4-2.4 8.8-4 13.6-6.4 8-3.2 16.8-7.2 24-12 9.6-6.4 13.6-16 12.8-27.2-0.8-17.6-12-25.6-26.4-28.8-1.6 0-3.2-0.8-4.8-0.8 0-2.4 0-4 0-6.4 0-4.8-2.4-7.2-7.2-7.2-5.6 0-11.2 0-16.8 0-4.8 0-7.2 2.4-7.2 7.2 0 2.4 0 4.8 0 6.4-4.8 0.8-9.6 2.4-13.6 3.2-4.8 1.6-9.6 3.2-14.4 6.4-4 2.4-4 4-1.6 8 2.4 3.2 4.8 7.2 6.4 10.4 1.6 1.6 3.2 3.2 4 4z" />
<glyph unicode="&#xe922;" glyph-name="sign-inr" d="M309.6 354.4c4-7.2 8-14.4 10.4-23.2h41.6c4.8 0 8.8-4 8.8-8.8v-28.8c0-4.8-4-8.8-8.8-8.8h-37.6c-4.8-52.8-44-89.6-98.4-91.2l107.2-99.2c5.6-5.6 1.6-15.2-5.6-15.2h-59.2c-1.6 0-4.8 0.8-5.6 2.4l-117.6 109.6c-1.6 1.6-2.4 4-2.4 6.4v37.6c0 4.8 4 8.8 8.8 8.8h60c29.6 0 48.8 16 53.6 41.6h-114.4c-4.8 0-8.8 4-8.8 8.8v28.8c0 4.8 4 8.8 8.8 8.8h104c-8.8 12-24 19.2-43.2 19.2h-60.8c-4.8 0-8.8 4-8.8 8.8v32c0 4.8 4 8.8 8.8 8.8h211.2c4.8 0 8.8-4 8.8-8.8v-28.8c0-4.8-4-8.8-8.8-8.8 0 0-52 0-52 0z" />
<glyph unicode="&#xe923;" glyph-name="sign-sek, sign-dkk" d="M270.4 91.2c1.6-1.6 2.4-4.8 0.8-7.2-0.8-2.4-3.2-3.2-5.6-3.2h-35.2c-1.6 0-3.2 0.8-4.8 1.6l-77.6 80.8h-2.4v-76c0-3.2-3.2-6.4-6.4-6.4h-29.6c-3.2 0-6.4 2.4-6.4 6.4v305.6c0 3.2 3.2 6.4 6.4 6.4h29.6c3.2 0 6.4-2.4 6.4-6.4v-176l70.4 89.6c0.8 1.6 3.2 2.4 4.8 2.4h36.8c2.4 0 4.8-1.6 5.6-3.2 0.8-2.4 0.8-4.8-0.8-6.4l-84-106.4 92-101.6zM405.6 309.6c-42.4 0-63.2-19.2-72-29.6v25.6c0 1.6-1.6 3.2-3.2 3.2h-35.2c-1.6 0-3.2-1.6-3.2-3.2v-222.4c0-0.8 0-1.6 0.8-2.4s1.6-0.8 2.4-0.8h40c1.6 0 3.2 1.6 3.2 3.2v119.2c0 6.4 0.8 12.8 1.6 18.4 5.6 29.6 24.8 47.2 51.2 48h13.6c0.8 0 1.6 0 2.4 0.8 1.6 0.8 1.6 1.6 1.6 2.4v34.4c0 1.6-0.8 3.2-3.2 3.2v0z" />
<glyph unicode="&#xe924;" glyph-name="sign-myr" d="M416 328c0 3.2-2.4 5.6-5.6 5.6h-28.8c-2.4 0-4.8-1.6-5.6-4l-31.2-85.6c-5.6-16-10.4-29.6-13.6-41.6-3.2 12-7.2 25.6-12.8 41.6l-30.4 85.6c-0.8 2.4-3.2 4-5.6 4h-28.8c-3.2 0-5.6-2.4-5.6-5.6v-176c0-1.6 0.8-3.2 1.6-4s2.4-1.6 4-1.6h17.6c3.2 0 5.6 2.4 5.6 5.6v113.6c3.2-9.6 6.4-19.2 10.4-31.2l28.8-84c0.8-2.4 3.2-4 5.6-4h17.6c2.4 0 4.8 1.6 5.6 4l31.2 85.6c4.8 12 8.8 24 12 34.4v-119.2c0-1.6 0.8-3.2 1.6-4s2.4-1.6 4-1.6h18.4c1.6 0 3.2 0.8 4 1.6 0 1.6 0 3.2 0 4.8v176zM188 232c17.6 15.2 24 28.8 24 50.4 0 14.4-5.6 28-15.2 36-12 10.4-28.8 15.2-54.4 15.2h-44.8c-1.6 0-2.4-0.8-2.4-2.4v-182.4c0-1.6 0.8-2.4 2.4-2.4h23.2c1.6 0 2.4 0.8 2.4 2.4v76h37.6l28-76.8c0-0.8 1.6-1.6 2.4-1.6h24c0.8 0 1.6 0.8 2.4 0.8 0.8 0.8 0.8 1.6 0 2.4l-29.6 82.4zM145.6 248h-21.6v63.2h20.8c17.6 0 39.2-5.6 39.2-31.2 0-20-15.2-32-38.4-32z" />
<glyph unicode="&#xe925;" glyph-name="sign-nem" d="M260.8 393.6c36 0 76.8-3.2 116-14.4 10.4-3.2 21.6-7.2 32-11.2 8-3.2 8-4 7.2-12.8-2.4-21.6-8-41.6-15.2-61.6-8-21.6-16.8-42.4-28-62.4-20.8-38.4-44-75.2-73.6-106.4-11.2-11.2-23.2-21.6-35.2-32-8-6.4-8-5.6-16.8 0-19.2 13.6-36 31.2-50.4 49.6-20.8 25.6-39.2 53.6-55.2 83.2-16.8 31.2-31.2 63.2-39.2 97.6-3.2 11.2-4 23.2-6.4 35.2-0.8 6.4 0 7.2 5.6 9.6 20.8 9.6 43.2 15.2 65.6 19.2 29.6 4 59.2 6.4 93.6 6.4zM403.2 355.2c-3.2 1.6-4.8 2.4-7.2 3.2-28.8 11.2-59.2 16-89.6 19.2-6.4 0.8-11.2-0.8-15.2-4.8-0.8-0.8-1.6-1.6-3.2-2.4-27.2-21.6-39.2-56.8-30.4-88.8 0.8-4 2.4-5.6 7.2-6.4 16.8-3.2 31.2-11.2 43.2-22.4 15.2-14.4 24.8-32 28.8-52 0-1.6 0.8-2.4 1.6-5.6 30.4 51.2 56 101.6 64.8 160zM256 101.6c3.2 2.4 4.8 4 7.2 5.6 24 19.2 43.2 43.2 61.6 68 1.6 1.6 1.6 4.8 1.6 6.4-0.8 20-7.2 37.6-20 53.6-11.2 14.4-25.6 23.2-43.2 27.2-3.2 0.8-5.6 0-8-3.2-8-9.6-18.4-16.8-29.6-21.6-15.2-6.4-32-9.6-48.8-8-8 0.8-15.2 2.4-24 4 26.4-49.6 57.6-96.8 103.2-132zM276 380c-3.2 0-4.8 0-6.4 0-17.6 0-34.4 0-52-1.6-28.8-1.6-56.8-5.6-84-14.4-8-2.4-16-5.6-24-8.8 0-4 0.8-6.4 0.8-9.6 4.8-30.4 15.2-59.2 28.8-87.2 1.6-4 4-7.2 8-8.8 17.6-7.2 35.2-9.6 54.4-5.6 16 4 30.4 11.2 42.4 23.2 2.4 2.4 3.2 4 1.6 8-9.6 31.2-4 59.2 14.4 85.6 4.8 7.2 10.4 12.8 16 19.2z" />
<glyph unicode="&#xe926;" glyph-name="sign-ngn" d="M96 191.2v33.6h37.6v28.8h-37.6v34.4h37.6v105.6h49.6l65.6-105.6h88.8v105.6h39.2v-105.6h39.2v-33.6h-38.4v-28.8h38.4v-33.6h-38.4v-104.8h-46.4l-67.2 104h-90.4v-104.8h-40v104.8h-37.6zM173.6 288h29.6l-29.6 47.2v-47.2zM173.6 224.8h69.6l-18.4 28.8h-51.2c0 0 0-28.8 0-28.8zM288 224.8h50.4v28.8h-68l17.6-28.8zM338.4 144.8v46.4h-28.8l28.8-46.4z" />
<glyph unicode="&#xe927;" glyph-name="sign-rub" d="M224 194.4v-22.4h115.2c4.8 0 8.8-4 8.8-8.8v-28.8c0-4.8-4-8.8-8.8-8.8h-115.2v-36.8c0-4.8-4-8.8-8.8-8.8h-41.6c-4.8 0-8.8 4-8.8 8.8v36.8h-36.8c-4.8 0-8.8 4-8.8 8.8v28.8c0 4.8 4 8.8 8.8 8.8h36.8v22.4h-36.8c-4.8 0-8.8 4-8.8 8.8v32c0 4.8 4 8.8 8.8 8.8h36.8v147.2c0 4.8 4 8.8 8.8 8.8h116c60.8 0 103.2-40.8 103.2-101.6s-42.4-103.2-103.2-103.2h-65.6v-0.8zM224 244h55.2c34.4 0 54.4 20.8 54.4 53.6 0 32-20 52.8-53.6 52.8h-56v-106.4z" />
<glyph unicode="&#xe929;" glyph-name="sign-steem" d="M301.6 227.2c-15.2 32.8-28 60-40 84-9.6 18.4-12 39.2-8.8 61.6 0.8 4.8 0.8 8.8 1.6 13.6 0 2.4 0.8 4.8 0.8 7.2 0 1.6-0.8 3.2-1.6 4.8-1.6 0.8-3.2 1.6-4.8 0.8-0.8-0.8-1.6-0.8-2.4-0.8-1.6-0.8-2.4-0.8-4-1.6-21.6-16-37.6-32.8-47.2-53.6-6.4-14.4-4-28 0-40.8 6.4-22.4 16.8-44 25.6-64.8l8.8-19.2c8.8-18.4 16.8-36.8 25.6-55.2 5.6-12 6.4-24 4-37.6-1.6-6.4-3.2-12-4.8-18.4-1.6-4.8-2.4-8.8-4-13.6-0.8-2.4-0.8-4.8-0.8-6.4v-1.6c0-1.6 0.8-3.2 2.4-4 0.8-0.8 1.6-0.8 2.4-0.8s1.6 0 1.6 0 1.6 0.8 1.6 0.8c1.6 0.8 4 1.6 6.4 3.2 21.6 16.8 38.4 37.6 51.2 59.2 4.8 8.8 6.4 17.6 4 28-2.4 20.8-10.4 38.4-17.6 55.2zM308 149.6c-12-20-28-39.2-47.2-55.2l3.2 11.2c1.6 5.6 3.2 12.8 4.8 18.4 3.2 15.2 1.6 29.6-4.8 43.2-8.8 18.4-16.8 37.6-25.6 55.2l-8.8 19.2c-9.6 20-19.2 40.8-25.6 62.4-4 12.8-5.6 23.2 0 33.6 8.8 17.6 21.6 33.6 40 47.2-0.8-4-0.8-8-1.6-11.2-3.2-24.8 0-47.2 9.6-67.2 12-24 24-50.4 39.2-83.2 7.2-16 15.2-33.6 18.4-52 3.2-8.8 1.6-15.2-1.6-21.6zM208 191.2c-4 12.8-8 25.6-13.6 38.4-6.4 14.4-12.8 28-20 42.4-4 8.8-8.8 18.4-12.8 28-2.4 5.6-4 10.4-5.6 16-2.4 12.8-0.8 25.6 0.8 39.2 0 1.6 0 2.4 0 4v1.6c0 1.6-0.8 3.2-2.4 4s-3.2 0.8-4.8 0c-0.8-0.8-1.6-0.8-1.6-0.8-1.6-0.8-2.4-1.6-4-2.4-13.6-9.6-24.8-21.6-32.8-35.2-6.4-10.4-8-20.8-4.8-32 4-17.6 12-34.4 19.2-51.2 4-8.8 8-17.6 12.8-26.4 5.6-12.8 12-24.8 17.6-37.6 4-8.8 4.8-17.6 3.2-28-0.8-5.6-2.4-10.4-4-16-0.8-3.2-1.6-6.4-2.4-9.6-0.8-1.6-0.8-3.2-0.8-4.8 0-0.8 0-1.6 0-1.6 0-1.6 0.8-4 2.4-5.6l1.6-0.8c0.8-0.8 1.6-0.8 2.4-0.8s1.6 0 2.4 0.8l1.6 0.8c1.6 0.8 2.4 1.6 4 2.4 16.8 13.6 30.4 29.6 40.8 47.2 4.8 8 5.6 16 3.2 24l-2.4 4zM197.6 169.6c-8.8-15.2-20-28.8-34.4-40.8 0.8 1.6 0.8 3.2 1.6 4.8 1.6 5.6 3.2 11.2 4 16.8 2.4 12 1.6 23.2-3.2 33.6-5.6 12.8-11.2 24.8-17.6 37.6-4 8.8-8 17.6-12.8 26.4-8 16.8-15.2 32.8-19.2 49.6-1.6 8.8-0.8 16.8 4 24.8 6.4 11.2 16 21.6 27.2 29.6-1.6-12.8-3.2-25.6-0.8-38.4 1.6-6.4 3.2-12 5.6-18.4 4-9.6 8.8-18.4 12.8-28 6.4-13.6 12.8-28 19.2-42.4 5.6-12 9.6-24.8 13.6-37.6l1.6-3.2c2.4-4 1.6-9.6-1.6-14.4zM406.4 183.2c-1.6 8.8-4 18.4-8 28-6.4 16-14.4 31.2-20.8 46.4-4.8 9.6-8.8 19.2-12.8 28.8l-0.8 1.6c-3.2 8-7.2 16-9.6 24-3.2 11.2-1.6 23.2-0.8 34.4 0.8 3.2 0.8 5.6 0.8 8.8l0.8 4c0 1.6-0.8 4-2.4 4.8l-1.6 0.8c-1.6 0.8-3.2 0.8-4.8 0-0.8 0-0.8-0.8-1.6-0.8-1.6-0.8-2.4-1.6-4-2.4-13.6-9.6-24-21.6-32-34.4-6.4-10.4-8-20.8-5.6-32 4-17.6 11.2-33.6 19.2-51.2 4-9.6 8.8-18.4 12.8-28 5.6-12 11.2-24 16.8-36 4-8.8 5.6-16.8 4-24-1.6-6.4-3.2-12.8-4.8-19.2-0.8-3.2-1.6-7.2-2.4-10.4 0-1.6-0.8-3.2-0.8-4.8 0-0.8 0-1.6 0-2.4 0-1.6 0.8-4 1.6-4.8s1.6-0.8 2.4-0.8 1.6 0 2.4 0.8 1.6 0.8 2.4 0.8c1.6 0.8 2.4 1.6 4 2.4 19.2 15.2 32.8 32 42.4 49.6 3.2 4.8 4 11.2 3.2 16zM395.2 171.2c-8-15.2-19.2-29.6-35.2-43.2l1.6 5.6c1.6 6.4 3.2 12.8 4.8 20 1.6 9.6 0.8 20-4.8 30.4-5.6 12-11.2 24-16.8 36-4.8 9.6-8.8 18.4-12.8 28-8 16.8-14.4 32.8-18.4 49.6-1.6 8.8-0.8 16.8 4.8 24.8 6.4 11.2 15.2 20.8 26.4 29.6 0-1.6 0-2.4-0.8-4-1.6-12.8-3.2-25.6 0.8-38.4 2.4-8.8 6.4-17.6 10.4-25.6l0.8-1.6c4.8-9.6 8.8-19.2 12.8-28.8 7.2-15.2 14.4-30.4 20.8-46.4 4-8.8 5.6-17.6 7.2-25.6 0.8-3.2 0-7.2-1.6-10.4v0z" />
<glyph unicode="&#xe92a;" glyph-name="sign-trx" d="M236.8 81.6c-1.6 2.4-2.4 4-3.2 6.4-24 66.4-48 132-72.8 198.4-12.8 35.2-25.6 69.6-38.4 104.8-0.8 3.2-1.6 6.4 1.6 8 1.6 0.8 3.2 0.8 4 0 8-2.4 16-4 24-6.4 60-15.2 120.8-29.6 180.8-44.8 7.2-1.6 13.6-4.8 20-8.8 9.6-6.4 20-13.6 29.6-20 8-4.8 8.8-10.4 4-17.6-44.8-68-90.4-136-135.2-204-4-5.6-7.2-10.4-11.2-16-0.8-1.6-2.4-1.6-3.2 0zM251.2 248.8c25.6 30.4 51.2 60 76.8 90.4-60 15.2-120 29.6-180.8 44.8 0 0 0-0.8-0.8-0.8 35.2-44.8 70.4-89.6 104.8-134.4zM139.2 377.6c-0.8 0-0.8-0.8 0 0 31.2-88 63.2-176 96-264 2.4 17.6 4 35.2 4.8 52.8 1.6 23.2 4 47.2 5.6 70.4 0 1.6 0 3.2-1.6 4.8-34.4 44.8-68.8 88.8-103.2 133.6-0.8 0.8-1.6 1.6-1.6 2.4zM244.8 105.6v0c44 64.8 86.4 129.6 129.6 194.4-1.6 0-2.4-0.8-3.2-0.8-16.8-8.8-33.6-17.6-49.6-27.2-20.8-11.2-42.4-22.4-63.2-34.4-0.8-0.8-2.4-2.4-2.4-3.2-1.6-15.2-2.4-30.4-4-45.6-1.6-20.8-3.2-41.6-5.6-62.4-0.8-7.2-1.6-13.6-1.6-20.8zM272.8 258.4c0.8 0 0.8 0 0 0 34.4 17.6 68 36 102.4 53.6-12 8-24 16-36 24-22.4-25.6-44-52-66.4-77.6z" />
<glyph unicode="&#xe92b;" glyph-name="sign-try" d="M392.8 231.2c-4-95.2-67.2-150.4-162.4-150.4h-56.8c-4.8 0-8.8 4-8.8 8.8v136.8l-35.2-8c-5.6-0.8-10.4 3.2-10.4 8v28.8c0 4 3.2 7.2 6.4 8l39.2 8.8v21.6l-35.2-8c-5.6-0.8-10.4 3.2-10.4 8v28.8c0 4 3.2 7.2 6.4 8l39.2 8.8v48.8c0 4.8 4 8.8 8.8 8.8h40c4.8 0 8.8-4 8.8-8.8v-36.8l92 20.8c5.6 0.8 10.4-3.2 10.4-8v-28.8c0-4-3.2-7.2-6.4-8l-96-21.6v-21.6l92 20.8c5.6 0.8 10.4-3.2 10.4-8v-28.8c0-4-3.2-7.2-6.4-8l-96-21.6v-113.6c61.6 0 119.2 34.4 119.2 105.6 0 4.8 4 8 8.8 8h33.6c4.8 1.6 8.8-2.4 8.8-7.2z" />
<glyph unicode="&#xe92c;" glyph-name="sign-usd" d="M341.6 165.6c-9.6-27.2-36.8-44.8-65.6-45.6v-30.4c0-5.6-4.8-9.6-9.6-9.6h-20c-5.6 0-9.6 4.8-9.6 9.6v30.4c-19.2 0-38.4 6.4-53.6 18.4-4.8 4-5.6 11.2-0.8 15.2l21.6 21.6c3.2 3.2 8 4 12 1.6 6.4-4 13.6-6.4 21.6-6.4h41.6c10.4 0 18.4 8 18.4 18.4 0 8-5.6 15.2-13.6 17.6l-64 18.4c-28 8-49.6 31.2-52 60-4 40.8 28 74.4 68 74.4h1.6v29.6c0 5.6 4.8 9.6 9.6 9.6h20c5.6 0 9.6-4.8 9.6-9.6v-28.8c19.2 0 38.4-6.4 53.6-18.4 4.8-4 5.6-11.2 0.8-15.2l-21.6-20.8c-3.2-3.2-8-4-12-1.6-6.4 4-13.6 6.4-21.6 6.4h-41.6c-10.4 0-18.4-8-18.4-18.4 0-8 5.6-15.2 13.6-17.6l67.2-20c36-11.2 58.4-50.4 44.8-88.8z" />
<glyph unicode="&#xe92d;" glyph-name="my-token" d="M313.2 258.8c-8.8 0-18.4-0.8-27.2-2.4-0.8 0-1.6 0.8-2.4 0.8-17.6 1.6-28 13.6-33.6 23.2 17.6 11.2 29.6 31.2 29.6 54.4 0 36-28.8 64.8-64.8 64.8s-64.8-28.8-64.8-64.8c0-21.6 10.4-40 25.6-52-5.6-10.4-20.8-23.2-51.2-31.2-6.4-1.6-10.4-7.2-10.4-13.6v-77.6c0-7.2 5.6-13.6 13.6-13.6h100l-0.8-23.2c0-28.8 42.4-43.2 84.8-43.2 41.6 0 84.8 14.4 84.8 44l1.6 91.2c0 28.8-42.4 43.2-84.8 43.2zM254.8 188.4c15.2-7.2 36.8-11.2 57.6-11.2 20 0 40.8 4 56 10.4l-0.8-33.6c-10.4-6.4-29.6-12-55.2-12-28.8 0-49.6 7.2-58.4 14.4l0.8 32zM369.2 214.8v-11.2c-10.4-6.4-29.6-12.8-56-12.8-28 0-48 6.4-57.6 13.6v9.6c1.6 4.8 20.8 16 56.8 16s55.2-11.2 56.8-15.2zM214.8 371.6c20 0 36.8-16.8 36.8-36.8s-16.8-36.8-36.8-36.8-36.8 16.8-36.8 36.8 16.8 36.8 36.8 36.8zM142 173.2v53.6c38.4 12 53.6 32 59.2 44.8 4-0.8 8.8-1.6 13.6-1.6 3.2 0 6.4 0 9.6 0.8 5.6-11.2 13.6-20.8 22.4-27.2-11.2-7.2-18.4-16-18.4-28l-0.8-42.4h-85.6zM310.8 107.6c-35.2 0-55.2 11.2-56.8 15.2v18.4c15.2-8 36.8-12 58.4-12 20 0 40 3.2 55.2 10.4v-16c-1.6-4.8-21.6-16-56.8-16z" />
<glyph unicode="&#xe92e;" glyph-name="sign-usdc" d="M308 195.2c-5.6-16.8-22.4-27.2-40-28v-18.4c0-3.2-3.2-5.6-5.6-5.6h-12c-3.2 0-5.6 3.2-5.6 5.6v18.4c-12 0-23.2 4-32.8 11.2-3.2 2.4-3.2 7.2-0.8 9.6l13.6 13.6c1.6 1.6 4.8 2.4 7.2 0.8 4-2.4 8-4 13.6-4h25.6c6.4 0 11.2 4.8 11.2 11.2 0 4.8-3.2 9.6-8 10.4l-39.2 11.2c-16.8 4.8-30.4 19.2-32 36.8-2.4 24.8 16.8 45.6 41.6 45.6h0.8v18.4c0 3.2 3.2 5.6 5.6 5.6h12c3.2 0 5.6-3.2 5.6-5.6v-17.6c12 0 23.2-4 32.8-11.2 3.2-2.4 3.2-7.2 0.8-9.6l-13.6-12.8c-1.6-1.6-4.8-2.4-7.2-0.8-4 2.4-8 4-13.6 4h-25.6c-6.4 0-11.2-4.8-11.2-11.2 0-4.8 3.2-9.6 8-10.4l41.6-12c21.6-8 36-32 27.2-55.2zM416 240c0 74.4-51.2 136.8-120 154.4v-29.6c52.8-16.8 92-66.4 92-124.8s-38.4-108-92-124.8v-29.6c68 17.6 120 80 120 154.4zM124.8 240c0 58.4 38.4 108 91.2 124.8v29.6c-68.8-17.6-120-80-120-154.4s51.2-136.8 120-154.4v29.6c-52.8 16.8-91.2 66.4-91.2 124.8z" />
<glyph unicode="&#xe92f;" glyph-name="sign-usdt" d="M415.2 248c0 20-54.4 36.8-127.2 40.8v32h90.4v66.4h-248v-66.4h90.4v-32c-71.2-4-124.8-20.8-124.8-40.8s53.6-36.8 124.8-40.8v-115.2h67.2v115.2c72.8 4 127.2 20.8 127.2 40.8v0zM256 228c-77.6 0-141.6 12-141.6 27.2 0 12.8 45.6 23.2 106.4 26.4v-38.4c11.2-0.8 22.4-0.8 34.4-0.8 11.2 0 21.6 0 32 0.8v39.2c62.4-2.4 109.6-13.6 109.6-26.4 0.8-16-63.2-28-140.8-28z" />
<glyph unicode="&#xe930;" glyph-name="sign-vnd" d="M353.6 377.6h-24.8v21.6h-28.8v-21.6h-25.6v-28.8h25.6v-47.2c-15.2 13.6-35.2 21.6-56.8 21.6-47.2 0-84.8-38.4-84.8-84.8v-21.6c0-47.2 38.4-84.8 84.8-84.8 21.6 0 41.6 8 56.8 21.6v-19.2h28.8v215.2h24.8v28zM244 160.8c-31.2 0-56.8 25.6-56.8 56.8v21.6c0 31.2 25.6 56.8 56.8 56.8s56.8-25.6 56.8-56.8v-21.6c-0.8-32-26.4-56.8-56.8-56.8zM158.4 109.6h170.4v-28.8h-170.4v28.8z" />
<glyph unicode="&#xe931;" glyph-name="sign-xlm" d="M415.2 362.4c0-2.4 0-4.8 0-7.2 0-6.4 0-12 0-18.4 0-1.6 0-1.6-1.6-2.4-21.6-11.2-43.2-22.4-64.8-32.8-64.8-32.8-129.6-66.4-194.4-99.2-18.4-9.6-37.6-19.2-56-28.8-0.8 0-0.8-0.8-1.6-0.8 0 0.8 0 0.8 0 1.6 0 8 0 16 0 24.8 0 0.8 0 1.6 1.6 2.4 3.2 1.6 6.4 3.2 9.6 4.8 8.8 4.8 13.6 12.8 13.6 23.2 0 7.2 0 13.6 0 20.8 0.8 15.2 4 29.6 10.4 43.2 8 18.4 19.2 33.6 33.6 47.2 17.6 16 38.4 27.2 62.4 32 38.4 8 73.6 0.8 106.4-21.6 0.8 0 0.8-0.8 1.6-0.8-0.8 0-0.8-0.8-1.6-0.8-7.2-4-15.2-7.2-22.4-11.2-0.8-0.8-1.6-0.8-2.4 0-17.6 9.6-37.6 14.4-57.6 13.6-33.6-1.6-60.8-16-81.6-41.6-12-15.2-20-32.8-22.4-52-1.6-10.4-1.6-20.8 0-31.2 88 44 177.6 89.6 267.2 135.2zM415.2 307.2c0-6.4 0-12.8 0-19.2 0-2.4 0-4.8 0-7.2 0-0.8 0-1.6-1.6-2.4-3.2-1.6-6.4-3.2-9.6-4.8-9.6-4.8-14.4-12.8-13.6-23.2 0-8 0.8-16 0-24.8-1.6-16-5.6-31.2-12.8-45.6-10.4-21.6-25.6-39.2-45.6-52-16.8-11.2-35.2-18.4-55.2-21.6-28-4-54.4 0-79.2 12-7.2 3.2-13.6 7.2-20.8 12 0.8 0 0.8 0.8 1.6 0.8 7.2 4 15.2 8 22.4 11.2 0.8 0.8 1.6 0.8 2.4 0 18.4-9.6 37.6-14.4 57.6-13.6 31.2 1.6 57.6 14.4 78.4 38.4 12.8 15.2 21.6 32 24.8 51.2 2.4 11.2 2.4 23.2 0.8 34.4 0 0 0 0 0 0.8-89.6-45.6-179.2-91.2-268.8-136.8 0 0.8 0 1.6 0 2.4 0 8 0 16 0 23.2 0 1.6 0.8 2.4 1.6 3.2 52 26.4 104 52.8 156 79.2 52.8 27.2 106.4 54.4 159.2 81.6 1.6 0.8 1.6 0.8 2.4 0.8z" />
<glyph unicode="&#xe932;" glyph-name="sign-xmr" d="M368.8 352.8c-30.4 30.4-70.4 46.4-112.8 46.4s-82.4-16.8-112.8-46.4-46.4-70.4-46.4-112.8 16.8-82.4 46.4-112.8 70.4-46.4 112.8-46.4 82.4 16.8 112.8 46.4 46.4 70.4 46.4 112.8-16 82.4-46.4 112.8zM256 374.4c74.4 0 134.4-60 134.4-134.4 0-16.8-3.2-33.6-8.8-48.8h-33.6v117.6l-92-92-91.2 92v-117.6h-33.6c-5.6 15.2-8.8 31.2-8.8 48.8-0.8 74.4 59.2 134.4 133.6 134.4zM256 105.6c-47.2 0-88.8 24-112.8 60.8h45.6v81.6l66.4-67.2 66.4 67.2v-81.6h45.6c-22.4-36.8-64-60.8-111.2-60.8z" />
<glyph unicode="&#xe933;" glyph-name="sign-xrp-old" d="M365.6 203.2c-10.4 5.6-22.4 8.8-33.6 8.8v0c-16 0-28.8 12-28.8 27.2s12 27.2 27.2 28v0 0c12 0 23.2 3.2 34.4 9.6 32 18.4 43.2 59.2 24 90.4s-60.8 41.6-92.8 23.2-43.2-59.2-24-90.4c8-12.8 3.2-29.6-9.6-37.6-13.6-8-30.4-3.2-38.4 8.8v0 0c-5.6 9.6-14.4 18.4-25.6 24-32.8 17.6-74.4 6.4-92.8-24.8-18.4-32-7.2-72 25.6-89.6s74.4-6.4 92.8 24.8c0 0 0 0 0 0.8v0 0c8 12.8 24.8 17.6 38.4 9.6 13.6-7.2 18.4-24 10.4-37.6-18.4-32-7.2-72 25.6-89.6s74.4-6.4 92.8 24.8c18.4 32 7.2 72-25.6 89.6v0z" />
<glyph unicode="&#xe934;" glyph-name="sign-xrp" d="M95.2 100c15.2 16 28 29.6 41.6 43.2 18.4 19.2 36.8 39.2 56 57.6 36 36 90.4 36 126.4 0 31.2-31.2 61.6-63.2 92-95.2 1.6-1.6 2.4-3.2 4.8-5.6-15.2 0-29.6 0-43.2 0-1.6 0-4 1.6-4.8 3.2-21.6 22.4-44 44.8-64.8 68-16 17.6-34.4 27.2-58.4 21.6-11.2-2.4-20-8-28-16-23.2-24-46.4-47.2-68.8-71.2-3.2-4-7.2-5.6-12-5.6-13.6 0.8-26.4 0-40.8 0zM96 380c15.2 0 28 0 41.6 0 3.2 0 6.4-2.4 8-4.8 23.2-23.2 45.6-47.2 68-70.4 24.8-24.8 58.4-24.8 82.4 0 22.4 23.2 44.8 46.4 67.2 69.6 4 4 7.2 5.6 12.8 5.6 12 0 24 0 37.6 0-1.6-1.6-1.6-2.4-2.4-3.2-31.2-32.8-63.2-65.6-94.4-97.6-34.4-35.2-89.6-35.2-124 0-32 32-63.2 64.8-94.4 97.6 0-0.8 0 0.8-2.4 3.2z" />
<glyph unicode="&#xe935;" glyph-name="sign-zec" d="M346.4 318.4v38.4h-69.6v42.4h-41.6v-42.4h-69.6v-50.4h107.2l-107.2-145.6v-38.4h69.6v-41.6h41.6v41.6h69.6v51.2h-107.2z" />
<glyph unicode="&#xe936;" glyph-name="tokenlite" d="M300.8 329.6l-2.4-16h-183.2c1.6 6.4 5.6 12 11.2 15.2l1.6 0.8h172.8zM296.8 303.2l-3.2-16h-44.8l-29.6-168.8-1.6-8.8-0.8-5.6h-8.8l-11.2 5.6 1.6 11.2 1.6 8.8 30.4 173.6zM221.6 303.2l-29.6-168.8-1.6-8.8-1.6-11.2-17.6 10.4 2.4 11.2 1.6 8 24.8 143.2h-85.6v16zM325.6 364l-2.4-10.4-1.6-10.4-27.2-164-1.6-8.8h92v-4l-2.4-12h-111.2l33.6 198.4 2.4 11.2 0.8 6.4h7.2zM389.6 196.8l-1.6-11.2-1.6-5.6h-82.4l26.4 158.4 3.2 20.8 19.2-11.2-3.2-20.8-22.4-130.4zM386.4 328.8l-52 30.4-8 4.8-10.4 5.6-47.2 27.2c-7.2 4-16 4-23.2 0l-116.8-68-1.6-0.8c-5.6-3.2-9.6-8.8-11.2-15.2 0-1.6-0.8-3.2-0.8-4.8v-137.6c0-8 4.8-16 12-20l45.6-26.4 16.8-9.6 8-4.8 10.4-5.6 36.8-21.6c3.2-2.4 8-3.2 12-3.2s8 0.8 12 3.2l118.4 68.8c7.2 4 12 12 12 20v137.6c-1.6 8-5.6 16-12.8 20zM377.6 171.2v0c0-1.6-0.8-2.4-1.6-3.2l-24-13.6-95.2-55.2c-1.6-0.8-2.4-0.8-4 0l-33.6 20-19.2 10.4-8 4.8-16.8 9.6-40.8 24c-1.6 0.8-1.6 2.4-1.6 3.2v137.6c0 1.6 0.8 2.4 1.6 3.2l2.4 1.6 28 16 88.8 51.2c0.8 0 1.6 0.8 1.6 0.8 0.8 0 1.6 0 1.6-0.8l48-28 16.8-9.6 8-4.8 19.2-11.2 26.4-15.2c1.6-0.8 1.6-2.4 1.6-3.2v-137.6h0.8z" />
</font>
</defs>
</svg>
